<?xml version="1.0" encoding="utf-8"?>
<!-- Generator: Adobe Illustrator 24.1.2, SVG Export Plug-In . SVG Version: 6.00 Build 0)  -->
<svg version="1.1" id="Lag_1" xmlns="http://www.w3.org/2000/svg" xmlns:xlink="http://www.w3.org/1999/xlink" x="0px" y="0px"
	 viewBox="0 0 818 100" style="enable-background:new 0 0 818 100;" xml:space="preserve">
<style type="text/css">
	.st0{fill:#FFFFFF;}
	.st1{fill:#FFC107;}
</style>
<g>
	<path class="st0" d="M22.3,38.7h34.2l1.4,57.2H37.3V85.3H24.7l-3.6,10.7H0.5L22.3,38.7z M37.3,71.8V48.3l-8,23.5H37.3z"/>
	<path class="st0" d="M70.2,38.7h20.6h4.4c16,0,23.6,14,21.3,28.7c-2.5,14-14,28.5-30.6,28.5h-4.4H60.8L70.2,38.7z M86.2,79.4
		c4,0,9.8-4.4,10.9-13.5c1-9.9-2.6-13.2-5.7-13.2h-2.8l-4.4,26.6H86.2z"/>
	<path class="st0" d="M120.7,38.7h19.8v47.6l16.3-47.6h21.4l-21.9,57.2h-34.2L120.7,38.7z"/>
	<path class="st0" d="M180.2,38.7h44.3l-2.7,14.6h-23.5l-1.1,6.7h20.5l-2.7,14.6h-20.3l-1.1,6.6H220l-2.6,14.6h-46.7L180.2,38.7z"/>
	<path class="st0" d="M247.2,67.3l-4.7,28.7H222l9.4-57.2h20.6L264.1,64l4.1-25.3h20.6l-9.4,57.2h-20.6L247.2,67.3z"/>
	<path class="st0" d="M304.7,53.7h-16.4l2.5-15h52.6l-2.5,15h-15.6l-7,42.2h-20.5L304.7,53.7z"/>
	<path class="st0" d="M340.3,71.5l5.1-32.8h20.9c0,0-3.8,22.8-5.1,31.2c-1.4,8.3,1.8,11.4,6.5,11.4c5.1,0,8.8-4.4,10.1-11.4
		l5.1-31.2h20.9l-5.1,32.8c-3.1,17.2-15,29.5-34.6,29.5C347.2,101.1,337.1,91.9,340.3,71.5z"/>
	<path class="st0" d="M406.8,38.9l20.6-0.2v0.1c1.5-0.1,3.1-0.1,4.4-0.1c16.5-0.2,23.2,9.8,21.4,21.3c-1.2,7.7-5.6,13.6-12,17.4
		l11.1,18.6h-23l-8.2-16.9l-2.6,16.9l-20.6,0.2L406.8,38.9z M426.1,66c3.6,0,7.2-2.3,7.7-7.2c0.4-3.6-2-5.9-5.7-5.9
		c-0.9,0-1.9,0.1-2.9,0.1l-2,13.1H426.1z"/>
	<path class="st0" d="M461.3,38.7h44.3L503,53.3h-23.5l-1.1,6.7h20.5l-2.7,14.6H476l-1.1,6.6h26.3l-2.6,14.6h-46.7L461.3,38.7z"/>
	<path class="st1" d="M544.1,65.2l-10.6,30.7h-26.8l1-57.2h19.8l-2.8,39.7l13.5-39.7H558l-0.4,39.7l11.1-39.7h21.4l-19.4,57.2h-27.2
		L544.1,65.2z"/>
	<path class="st1" d="M582.6,67.7c3.1-17.2,15.9-31.2,35.5-31.2c19.5,0,27.4,14,24.3,31.2c-3,17.2-15.8,31.1-35.4,31.1
		C587.5,98.8,579.5,84.9,582.6,67.7z M610.3,80.3c5.7,0,9.7-5.6,10.9-12.5c1.3-7-0.6-12.7-6.4-12.7c-5.7,0-9.6,5.7-10.9,12.7
		C602.7,74.6,604.5,80.3,610.3,80.3z"/>
	<path class="st1" d="M652.2,38.9l20.6-0.2v0.1c1.5-0.1,3.1-0.1,4.4-0.1c16.5-0.2,23.2,9.8,21.4,21.3c-1.2,7.7-5.6,13.6-12,17.4
		l11.1,18.6h-23l-8.2-16.9l-2.6,16.9l-20.6,0.2L652.2,38.9z M671.5,66c3.6,0,7.2-2.3,7.7-7.2c0.4-3.6-2-5.9-5.7-5.9
		c-0.9,0-1.9,0.1-2.9,0.1l-2,13.1H671.5z"/>
	<path class="st1" d="M722.8,69.3l-4.4,26.7h-20.6l9.4-57.2h20.6l-4.1,24.8l20-24.8h25.8L745,65.6l16,30.3h-25.3L722.8,69.3z"/>
	<path class="st1" d="M758,75.1h19.9c0,3.2,1.5,6.9,6.6,7.8c8.8,1.7,13.5-7.7,2-9.2c-13.9-1.9-24.6-7.1-22.2-20.3
		c2.2-11.7,15.4-17,27.8-17c15.3,0,26.4,8.5,25.9,22.3l-19-0.4c0-3.5-2.9-6.9-9.5-6.4c-5.7,0.4-9.6,6.5,0,7.8
		c19.9,2.7,25.4,10.3,24.2,20.1c-1.6,11.5-13.6,19-29.8,19C766,98.8,756.6,87.1,758,75.1z"/>
</g>
<g>
	<path class="st1" d="M26,2.5h10.2c6.8,0,9.5,4,8.8,8.7c-0.9,5.8-6.1,9.2-13.4,9.2h0l-0.9,5.5l-8.5,0.1L26,2.5z M33.9,13.7
		c1.4,0,2.9-0.9,3.1-3c0.2-1.5-0.8-2.4-2.4-2.4c-0.4,0-0.8,0-1.2,0l-0.8,5.4H33.9z"/>
	<path class="st1" d="M47.6,2.6l8.5-0.1v0c0.6,0,1.3,0,1.8,0c6.8-0.1,9.5,4,8.8,8.7c-0.5,3.1-2.3,5.6-5,7.1l4.5,7.6h-9.5l-3.4-6.9
		l-1.1,6.9L44,26.1L47.6,2.6z M55.6,13.7c1.5,0,2.9-0.9,3.1-3c0.2-1.5-0.8-2.4-2.4-2.4c-0.4,0-0.8,0-1.2,0l-0.8,5.4H55.6z"/>
	<path class="st1" d="M67.1,15.4c1.3-7.1,6.6-12.8,14.6-12.8c8,0,11.2,5.8,10,12.8c-1.2,7.1-6.5,12.8-14.5,12.8
		C69.1,28.2,65.9,22.5,67.1,15.4z M78.5,20.5c2.4,0,4-2.3,4.5-5.2c0.5-2.9-0.2-5.2-2.6-5.2c-2.4,0-3.9,2.3-4.5,5.2
		C75.4,18.2,76.1,20.5,78.5,20.5z"/>
	<path class="st1" d="M92.8,17.1h7.9c-0.5,2.2,0.1,3.4,1.6,3.4c2.1,0,3.1-2.3,3.7-5.2l2.1-12.8h8.6l-2.1,12.8
		c-1.3,7.1-5.5,12.8-13.6,12.8C94.4,28.2,91.2,23.8,92.8,17.1z"/>
	<path class="st1" d="M119.1,2.5h18.2l-1.1,6h-9.6l-0.5,2.8h8.4l-1.1,6h-8.3l-0.5,2.7h10.8l-1.1,6h-19.2L119.1,2.5z"/>
	<path class="st1" d="M146.4,15.1l-1.8,11h-8.5L140,2.5h8.5l-1.7,10.2L155,2.5h10.6l-10.1,11l6.6,12.5h-10.4L146.4,15.1z"/>
	<path class="st1" d="M168.7,8.7H162l1-6.2h21.6l-1,6.2h-6.4l-2.9,17.3h-8.4L168.7,8.7z"/>
</g>
</svg>
