<?xml version="1.0" encoding="utf-8"?>
<!-- Generator: Adobe Illustrator 24.1.2, SVG Export Plug-In . SVG Version: 6.00 Build 0)  -->
<svg version="1.1" id="Lag_1" xmlns="http://www.w3.org/2000/svg" xmlns:xlink="http://www.w3.org/1999/xlink" x="0px" y="0px"
	 viewBox="0 0 624 100" style="enable-background:new 0 0 624 100;" xml:space="preserve">
<style type="text/css">
	.st0{fill:#FFC107;}
	.st1{fill:#FFFFFF;}
</style>
<g>
	<path class="st0" d="M14.1,1h18.3l-1.1,6.2h-9.8l-0.9,5.4h8.8l-1.1,6.2h-8.7l-1,5.9h-8.5L14.1,1z"/>
	<path class="st0" d="M30.5,12.9C31.8,5.8,37.1,0,45.2,0c8.1,0,11.3,5.8,10.1,12.9c-1.3,7.1-6.6,12.9-14.7,12.9
		C32.5,25.8,29.2,20.1,30.5,12.9z M41.9,18.1c2.4,0,4-2.3,4.5-5.2c0.5-2.9-0.2-5.2-2.7-5.2c-2.4,0-4,2.4-4.5,5.2
		C38.8,15.8,39.6,18.1,41.9,18.1z"/>
	<path class="st0" d="M59.3,1L67.9,1v0c0.6,0,1.3,0,1.8,0c6.8-0.1,9.6,4,8.9,8.8c-0.5,3.2-2.3,5.6-5,7.2l4.6,7.7h-9.5l-3.4-7l-1.1,7
		l-8.5,0.1L59.3,1z M67.3,12.3c1.5,0,3-0.9,3.2-3c0.2-1.5-0.8-2.5-2.4-2.5c-0.4,0-0.8,0-1.2,0l-0.8,5.4H67.3z"/>
	<path class="st0" d="M89.9,7.2H79.8L80.9,1h23.5L90.8,18.4h10.1l-1.1,6.2H75.6L89.9,7.2z"/>
	<path class="st0" d="M109,1h14.2l0.6,23.7h-8.5v-4.4H110l-1.5,4.4H100L109,1z M115.2,14.7V4.9l-3.3,9.8H115.2z"/>
</g>
<g>
	<path class="st1" d="M9.4,36.8h20.5h7.5c14,0,17.5,7.7,15.8,15.9c-1,5.1-4.8,8.8-10.2,11.1c6.1,2.1,9.2,6.2,8.9,12.5
		c-0.5,8.9-9.8,17.4-23.8,17.4h-7.6H0L9.4,36.8z M26.8,79.6c3.4,0,5.8-1.3,6.4-3.9c0.6-2.8-0.7-4.2-4.2-4.2h-4.9l-1.4,8.2H26.8z
		 M28.6,58.6c3.4,0,5.6-1.8,6.2-4.4c0.6-2.8-1-4.9-4.4-4.9h-2.6l-1.5,9.3H28.6z"/>
	<path class="st1" d="M64.2,36.8h20.5l-9.4,57H54.8L64.2,36.8z"/>
	<path class="st1" d="M91.4,36.8h20.5l-6.6,40.4h25.8l-2.6,16.5H82.1L91.4,36.8z"/>
	<path class="st1" d="M134.9,69.4l5.1-32.7h20.9c0,0-3.8,22.7-5.1,31.1c-1.4,8.3,1.8,11.3,6.5,11.3c5.1,0,8.7-4.4,10-11.3l5.1-31.1
		h20.9l-5.1,32.7c-3.1,17.1-14.9,29.4-34.4,29.4C141.8,98.8,131.8,89.6,134.9,69.4z"/>
	<path class="st1" d="M204,36.8h20.5h4.4c15.9,0,23.5,14,21.2,28.5c-2.5,14-14,28.4-30.5,28.4h-4.4h-20.5L204,36.8z M219.8,77.3
		c3.9,0,9.7-4.4,10.8-13.4c1-9.9-2.6-13.1-5.7-13.1h-2.8l-4.4,26.5H219.8z"/>
	<path class="st1" d="M259.4,36.8h20.5l-6.6,40.4h25.8l-2.6,16.5H250L259.4,36.8z"/>
	<path class="st1" d="M308.8,36.8h44.1l-2.6,14.5h-23.4l-1.1,6.7h20.4l-2.6,14.6h-20.2l-1.1,6.6h26.1l-2.6,14.6h-46.4L308.8,36.8z"
		/>
	<path class="st1" d="M352,72.1h19.3c-1.2,5.2,0.3,8.2,3.9,8.2c5.2,0,7.6-5.6,8.9-12.5l5.1-31.1H410l-5.1,31.1
		c-3.1,17.2-13.4,31-32.9,31C355.9,98.8,348.1,88.3,352,72.1z"/>
	<path class="st1" d="M432,65.2l-4.7,28.5h-20.5l9.3-57h20.5l12.1,25.2l4.1-25.2h20.5l-9.3,57h-20.5L432,65.2z"/>
	<path class="st1" d="M481.1,36.8h20.5l-9.4,57h-20.5L481.1,36.8z"/>
	<path class="st1" d="M524.5,65.2l-4.7,28.5h-20.5l9.3-57h20.5l12.1,25.2l4.1-25.2h20.5l-9.3,57h-20.5L524.5,65.2z"/>
	<path class="st1" d="M565.7,66.9c3-17.1,15.7-31.1,35.2-31.1c13.8,0,22.3,10,22.8,23.5h-19.9c-0.8-3.1-2.8-5-6.3-5
		c-5.7,0-9.5,5.7-10.8,12.6c-1.2,6.9,0.7,12.5,6.4,12.5c3.4,0,6.2-2,8.2-5.1h-9.1l2.2-12.2H624l-2.1,9.9
		c-4.6,14.7-17.3,25.9-32,25.9C570.4,97.8,562.7,84,565.7,66.9z"/>
</g>
</svg>
